<?xml version="1.0" encoding="UTF-8" ?>
<!DOCTYPE svg PUBLIC "-//W3C//DTD SVG 1.1//EN" "http://www.w3.org/Graphics/SVG/1.1/DTD/svg11.dtd">
<svg width="370pt" height="250pt" viewBox="0 0 370 250" version="1.1" xmlns="http://www.w3.org/2000/svg">
<g id="#ffffffff">
</g>
<g id="#0589c8ff">
<path fill="#0589c8" opacity="1.00" d=" M 97.12 61.00 C 96.90 52.24 105.19 44.46 113.94 45.43 C 122.77 45.37 130.17 53.46 129.79 62.21 C 126.72 62.09 123.65 61.87 120.58 61.77 C 119.74 59.16 118.87 56.02 116.00 54.97 C 112.12 52.97 107.16 55.81 106.62 60.07 C 105.76 63.76 108.99 66.42 111.53 68.47 C 117.37 72.88 124.11 76.80 127.55 83.54 C 131.49 90.95 129.80 100.38 124.47 106.67 C 127.05 106.59 129.63 106.60 132.21 106.65 C 137.35 127.96 142.92 149.17 147.99 170.49 C 144.86 170.50 141.74 170.50 138.61 170.51 C 137.15 164.78 135.60 159.06 134.27 153.29 C 129.73 153.20 125.19 153.21 120.65 153.26 C 119.31 159.03 117.83 164.76 116.48 170.53 C 113.35 170.52 110.22 170.52 107.10 170.50 C 112.24 150.03 117.32 129.54 122.36 109.05 C 117.34 110.93 111.66 112.61 106.42 110.54 C 98.75 107.65 94.01 99.46 94.13 91.41 C 97.05 91.35 99.98 91.33 102.91 91.36 C 103.42 95.51 104.76 100.48 109.25 101.89 C 115.55 104.26 122.14 97.26 120.48 91.01 C 119.02 84.42 112.88 80.77 107.69 77.28 C 102.31 73.55 96.73 68.08 97.12 61.00 M 123.12 143.80 C 126.01 143.86 128.90 143.90 131.79 143.98 C 130.57 138.17 129.04 132.43 127.42 126.73 C 125.76 132.36 124.46 138.09 123.12 143.80 Z" />
<path fill="#0589c8" opacity="1.00" d=" M 196.76 46.56 C 207.73 46.44 218.71 46.45 229.68 46.53 C 229.68 49.44 229.68 52.35 229.68 55.26 C 225.85 55.27 222.02 55.27 218.20 55.24 C 218.15 71.97 218.26 88.70 218.16 105.44 C 222.81 105.45 227.76 106.43 231.17 109.84 C 234.62 112.79 236.03 117.28 236.71 121.62 C 233.65 121.67 230.58 121.67 227.52 121.69 C 226.45 119.22 225.51 116.13 222.62 115.27 C 218.46 113.16 214.01 116.64 212.44 120.42 C 209.92 126.62 210.41 133.46 210.28 140.01 C 210.49 146.28 210.00 153.06 213.24 158.71 C 215.15 162.29 220.01 163.72 223.52 161.63 C 225.88 160.37 226.62 157.63 227.64 155.37 C 230.65 155.40 233.67 155.41 236.70 155.47 C 236.05 160.74 233.89 166.31 229.02 169.02 C 226.93 170.56 223.58 170.88 222.79 173.71 C 221.52 176.93 220.74 180.33 219.30 183.48 C 216.35 184.05 213.33 183.73 210.35 183.74 C 211.98 179.67 213.66 175.61 215.28 171.53 C 211.07 169.34 207.00 166.45 204.82 162.11 C 200.29 153.49 201.11 143.43 201.07 134.01 C 201.11 125.64 202.29 116.39 208.56 110.22 C 208.80 91.91 208.59 73.60 208.66 55.29 C 204.86 55.27 201.06 55.26 197.27 55.24 C 197.05 52.35 196.85 49.46 196.76 46.56 Z" />
</g>
<g id="#0489c8ff">
<path fill="#0489c8" opacity="1.00" d=" M 236.30 46.44 C 239.38 46.47 242.47 46.49 245.55 46.47 C 245.50 61.33 245.58 76.19 245.53 91.04 C 245.47 94.12 245.98 97.47 248.30 99.71 C 251.12 102.80 256.35 103.29 259.53 100.48 C 261.99 98.43 262.85 95.15 262.73 92.06 C 262.75 76.89 262.70 61.72 262.74 46.55 C 265.92 46.49 269.10 46.49 272.28 46.52 C 272.26 61.02 272.25 75.51 272.29 90.01 C 272.30 93.87 272.02 97.89 270.31 101.42 C 269.11 103.92 267.01 105.79 265.44 108.03 C 270.10 128.94 275.81 149.63 280.76 170.48 C 277.60 170.50 274.44 170.49 271.28 170.50 C 269.91 164.74 268.30 159.04 267.01 153.27 C 262.47 153.19 257.94 153.19 253.41 153.26 C 252.02 159.03 250.57 164.78 249.15 170.54 C 246.09 170.50 243.03 170.50 239.97 170.47 C 244.35 150.81 249.96 131.43 254.25 111.74 C 248.50 111.07 242.76 108.47 239.43 103.57 C 236.45 99.34 236.29 93.97 236.28 88.99 C 236.27 74.81 236.26 60.62 236.30 46.44 M 255.81 143.78 C 258.73 143.85 261.65 143.90 264.58 143.97 C 263.18 138.18 261.80 132.38 260.09 126.68 C 258.54 132.35 257.24 138.08 255.81 143.78 Z" />
<path fill="#0489c8" opacity="1.00" d=" M 49.79 46.55 C 52.96 46.49 56.12 46.47 59.28 46.45 C 65.15 59.35 70.37 72.54 76.46 85.34 C 76.63 72.40 76.49 59.45 76.53 46.50 C 79.63 46.49 82.73 46.48 85.82 46.50 C 85.83 66.46 85.74 86.42 85.85 106.38 C 89.75 107.21 93.95 108.16 96.79 111.19 C 104.60 119.20 102.44 134.39 92.33 139.52 C 95.51 149.82 98.29 160.25 101.59 170.52 C 98.35 170.49 95.12 170.49 91.88 170.52 C 88.96 160.54 86.27 150.50 83.33 140.53 C 80.47 140.54 77.61 140.56 74.75 140.59 C 74.75 150.56 74.75 160.52 74.76 170.48 C 71.68 170.51 68.60 170.50 65.52 170.49 C 65.53 149.20 65.45 127.91 65.52 106.62 C 68.73 106.61 71.93 106.60 75.14 106.58 C 70.10 94.54 64.76 82.63 59.45 70.71 C 59.20 85.69 59.37 100.69 59.32 115.68 C 51.62 115.63 43.92 115.65 36.22 115.67 C 36.21 120.99 36.22 126.31 36.19 131.63 C 40.38 131.62 44.57 131.60 48.76 131.63 C 48.76 134.60 48.76 137.57 48.76 140.55 C 44.57 140.56 40.38 140.56 36.19 140.55 C 36.21 150.60 36.23 160.65 36.15 170.70 C 34.91 170.59 33.68 170.44 32.46 170.25 C 30.97 169.84 29.50 169.38 28.03 168.92 C 28.02 148.79 27.94 128.66 28.13 108.54 C 32.23 108.02 36.31 107.34 40.40 106.76 C 43.52 106.46 46.66 106.61 49.78 106.61 C 49.83 86.59 49.78 66.57 49.79 46.55 M 74.74 115.70 C 74.74 120.89 74.74 126.08 74.77 131.27 C 79.24 131.09 84.02 132.08 88.24 130.19 C 93.16 127.75 93.83 119.92 89.01 117.02 C 84.62 114.76 79.47 115.88 74.74 115.70 Z" />
<path fill="#0489c8" opacity="1.00" d=" M 182.21 106.63 C 185.32 106.63 188.44 106.62 191.56 106.63 C 191.59 127.91 191.57 149.19 191.59 170.47 C 188.69 170.47 185.79 170.63 182.91 170.39 C 181.54 168.49 180.67 166.30 179.73 164.18 C 175.89 155.08 171.77 146.10 167.89 137.02 C 167.11 135.22 166.14 133.52 165.03 131.91 L 164.56 131.23 C 162.94 143.75 163.90 156.40 163.77 168.98 C 161.52 169.01 159.27 169.03 157.03 169.06 C 156.61 156.71 156.98 144.35 156.84 132.00 C 156.75 124.07 156.79 116.14 157.17 108.23 C 160.02 108.05 162.88 107.86 165.72 107.56 C 170.50 120.32 176.49 132.60 181.79 145.15 C 182.69 132.34 182.02 119.47 182.21 106.63 Z" />
</g>
<g id="#048ac8ff">
<path fill="#048ac8" opacity="1.00" d=" M 26.64 46.50 C 29.66 46.49 32.69 46.49 35.72 46.51 C 35.72 60.84 35.68 75.16 35.72 89.49 C 32.70 89.53 29.68 89.54 26.66 89.50 C 26.63 75.17 26.70 60.84 26.64 46.50 Z" />
</g>
<g id="#038ac7ff">
<path fill="#038ac7" opacity="1.00" d=" M 136.28 46.52 C 147.11 46.48 157.94 46.45 168.77 46.53 C 168.74 49.43 168.73 52.34 168.70 55.24 C 164.90 55.28 161.09 55.12 157.30 55.38 L 156.39 55.47 C 155.21 72.42 156.46 89.46 155.80 106.44 C 153.82 105.98 151.81 105.62 149.91 104.91 C 148.23 98.76 149.22 92.29 149.02 86.00 C 148.82 75.82 149.66 65.61 148.71 55.46 L 147.80 55.37 C 143.98 55.13 140.16 55.30 136.34 55.23 C 136.31 52.32 136.30 49.42 136.28 46.52 Z" />
</g>
<g id="#038ac9ff">
<path fill="#038ac9" opacity="1.00" d=" M 178.40 46.48 C 181.41 46.47 184.42 46.48 187.44 46.51 C 187.48 60.83 187.44 75.15 187.44 89.47 C 184.42 89.51 181.40 89.53 178.39 89.52 C 178.38 75.17 178.37 60.82 178.40 46.48 Z" />
</g>
<g id="#0389c8ff">
<path fill="#0389c8" opacity="1.00" d=" M 278.74 46.54 C 289.64 46.45 300.55 46.48 311.45 46.51 C 311.45 49.43 311.44 52.35 311.39 55.27 C 307.51 55.24 303.62 55.25 299.74 55.32 C 299.71 73.67 299.73 92.02 299.74 110.37 C 296.63 110.36 293.52 110.36 290.41 110.34 C 290.43 91.97 290.45 73.61 290.39 55.24 C 286.50 55.26 282.62 55.27 278.73 55.25 C 278.71 52.35 278.71 49.44 278.74 46.54 Z" />
</g>
<g id="#2182a6ff">
<path fill="#2182a6" opacity="1.00" d=" M 147.80 55.37 L 148.71 55.46 C 149.66 65.61 148.82 75.82 149.02 86.00 C 149.22 92.29 148.23 98.76 149.91 104.91 C 151.81 105.62 153.82 105.98 155.80 106.44 C 156.46 89.46 155.21 72.42 156.39 55.47 L 157.30 55.38 C 157.46 72.42 157.37 89.46 157.34 106.50 C 160.16 106.53 163.05 106.52 165.72 107.56 C 162.88 107.86 160.02 108.05 157.17 108.23 C 156.79 116.14 156.75 124.07 156.84 132.00 C 156.98 144.35 156.61 156.71 157.03 169.06 C 159.27 169.03 161.52 169.01 163.77 168.98 C 163.90 156.40 162.94 143.75 164.56 131.23 L 165.03 131.91 C 165.30 144.76 165.14 157.61 165.17 170.45 C 161.98 170.52 158.80 170.54 155.61 170.54 C 155.58 149.37 155.59 128.21 155.59 107.04 C 152.98 106.87 150.37 106.80 147.76 106.71 C 147.77 89.60 147.70 72.49 147.80 55.37 Z" />
</g>
<g id="#0689c8ff">
<path fill="#0689c8" opacity="1.00" d=" M 313.58 113.57 C 317.46 106.10 327.54 103.52 334.91 107.11 C 340.82 109.71 344.01 116.00 344.48 122.21 C 341.32 122.26 338.16 122.27 334.99 122.17 C 334.27 120.03 333.98 117.41 331.94 116.05 C 329.50 114.07 325.46 113.83 323.23 116.26 C 320.34 118.87 320.44 124.05 323.48 126.52 C 329.57 132.09 337.82 135.61 341.79 143.26 C 346.99 152.29 343.63 165.48 334.10 170.15 C 327.66 172.98 319.33 171.84 314.48 166.51 C 310.41 162.64 308.86 157.02 308.37 151.59 C 311.32 151.52 314.27 151.50 317.23 151.49 C 317.80 155.81 319.38 160.96 324.16 162.20 C 331.05 164.30 337.45 155.89 334.43 149.62 C 331.26 140.78 320.85 138.55 315.48 131.49 C 310.92 126.74 310.17 119.18 313.58 113.57 Z" />
</g>
<g id="#187aa4ff">
<path fill="#187aa4" opacity="1.00" d=" M 26.66 106.64 C 31.24 106.63 35.82 106.53 40.40 106.76 C 36.31 107.34 32.23 108.02 28.13 108.54 C 27.94 128.66 28.02 148.79 28.03 168.92 C 29.50 169.38 30.97 169.84 32.46 170.25 C 30.53 170.42 28.60 170.52 26.66 170.62 C 26.67 149.30 26.62 127.97 26.66 106.64 Z" />
</g>
<g id="#fbfefcff">
</g>
<g id="#f6fdfaff">
</g>
<g id="#f7fcfaff">
</g>
<g id="#028ac9ff">
<path fill="#028ac9" opacity="1.00" d=" M 290.48 127.32 C 293.46 127.35 296.44 127.37 299.42 127.35 C 299.47 141.73 299.43 156.11 299.45 170.48 C 296.45 170.49 293.46 170.50 290.46 170.50 C 290.44 156.11 290.37 141.71 290.48 127.32 Z" />
</g>
<g id="#4d4d4dff">
<path fill="#4d4d4d" opacity="1.00" d=" M 27.58 191.69 C 32.97 191.25 38.44 191.38 43.84 191.69 C 43.31 195.26 38.89 193.30 36.37 193.81 C 36.31 200.01 36.56 206.23 36.25 212.43 C 35.62 212.42 34.38 212.40 33.76 212.39 C 33.39 206.22 33.69 200.03 33.62 193.85 C 30.98 193.82 28.33 193.70 25.70 193.39 C 26.17 192.96 27.11 192.11 27.58 191.69 Z" />
<path fill="#4d4d4d" opacity="1.00" d=" M 67.37 191.41 C 68.45 191.43 69.53 191.45 70.62 191.47 C 74.07 196.91 77.25 202.54 81.01 207.78 C 81.20 202.32 81.04 196.86 81.14 191.39 C 81.77 191.39 83.02 191.39 83.65 191.39 C 83.60 198.55 83.80 205.72 83.51 212.88 C 82.04 212.35 80.21 212.17 79.45 210.61 C 76.18 205.84 73.49 200.68 69.95 196.09 C 69.63 201.46 70.09 206.84 69.69 212.20 C 69.17 212.34 68.14 212.63 67.62 212.78 C 67.01 205.68 67.51 198.53 67.37 191.41 Z" />
</g>
<g id="#4e4e4fff">
<path fill="#4e4e4f" opacity="1.00" d=" M 60.23 191.41 C 60.88 191.41 62.18 191.42 62.83 191.43 C 62.68 196.82 63.21 202.26 62.49 207.61 C 61.48 212.86 54.96 213.83 50.72 212.19 C 47.95 211.01 46.82 207.87 46.70 205.06 C 46.52 200.52 46.52 195.96 46.76 191.43 C 47.39 191.43 48.65 191.43 49.28 191.44 C 49.82 196.70 48.82 202.07 49.81 207.29 C 51.14 211.93 59.17 211.61 59.92 206.81 C 60.65 201.71 60.05 196.53 60.23 191.41 Z" />
</g>
<g id="#515151ff">
<path fill="#515151" opacity="1.00" d=" M 100.40 191.39 C 105.12 189.50 110.78 192.33 111.52 197.49 C 110.84 197.53 109.46 197.60 108.78 197.64 C 107.62 195.78 106.58 193.03 103.90 193.33 C 100.89 192.65 98.01 195.55 99.39 198.52 C 102.37 200.33 106.01 200.38 109.12 201.88 C 112.76 203.81 112.40 210.05 108.70 211.74 C 105.74 213.20 102.03 213.32 99.01 211.96 C 96.54 210.72 95.64 207.93 95.29 205.38 C 98.77 205.08 98.96 209.92 102.08 210.44 C 104.49 211.03 106.75 209.83 108.86 208.83 C 108.72 207.44 108.65 206.04 108.33 204.68 C 105.13 202.77 101.16 202.90 97.95 201.06 C 94.56 198.43 96.37 192.34 100.40 191.39 Z" />
</g>
<g id="#4e4e4eff">
<path fill="#4e4e4e" opacity="1.00" d=" M 124.08 191.44 C 128.85 191.62 133.65 191.16 138.40 191.67 C 138.84 192.11 139.73 192.99 140.17 193.43 C 135.71 193.96 131.21 193.77 126.72 193.75 C 126.72 195.96 126.72 198.17 126.72 200.38 C 130.81 200.42 134.93 200.13 139.00 200.68 C 138.71 201.13 138.15 202.03 137.87 202.47 C 134.17 202.89 130.43 202.60 126.71 202.67 C 126.72 205.16 126.74 207.66 126.75 210.16 C 130.96 210.17 135.19 210.01 139.41 210.20 C 139.41 210.73 139.43 211.78 139.43 212.31 C 134.31 212.51 129.18 212.34 124.05 212.37 C 124.09 205.40 124.08 198.42 124.08 191.44 Z" />
</g>
<g id="#535353ff">
<path fill="#535353" opacity="1.00" d=" M 88.86 190.99 C 89.52 191.33 90.83 192.01 91.49 192.34 C 91.76 199.17 91.56 206.02 91.50 212.85 C 90.85 212.63 89.54 212.17 88.89 211.94 C 88.56 204.97 88.77 197.97 88.86 190.99 Z" />
</g>
<g id="#525252ff">
<path fill="#525252" opacity="1.00" d=" M 116.47 212.86 C 116.43 205.67 116.02 198.45 116.66 191.28 C 117.24 191.40 118.39 191.64 118.97 191.76 C 119.34 198.46 119.25 205.21 119.02 211.92 C 118.38 212.16 117.11 212.62 116.47 212.86 Z" />
</g>
</svg>
